<?xml version="1.0" encoding="utf-8"?>
<!-- Generator: Adobe Illustrator 19.1.0, SVG Export Plug-In . SVG Version: 6.00 Build 0)  -->
<!DOCTYPE svg PUBLIC "-//W3C//DTD SVG 1.1//EN" "http://www.w3.org/Graphics/SVG/1.1/DTD/svg11.dtd">
<svg version="1.1" id="Layer_1" xmlns="http://www.w3.org/2000/svg" xmlns:xlink="http://www.w3.org/1999/xlink" x="0px" y="0px"
	 viewBox="-490 492 42 42" style="enable-background:new -490 492 42 42;" xml:space="preserve">
<style type="text/css">
	.st0{fill:#FFFFFF;}
	.st1{fill:#006DB1;}
	.st2{fill:#D32210;}
</style>
<circle class="st0" cx="-469" cy="513.1" r="20.2"/>
<g>
	<g>
		<path class="st1" d="M-485.8,505.6l0.6-1.1c0.2-0.5,1-1.1,2-0.5c0.9,0.5,1.1,1.3,0.6,2.2l-0.4,0.9L-485.8,505.6z M-483.2,506.3
			l0.2-0.4c0.3-0.5,0-1-0.5-1.3c-0.5-0.3-1.1-0.3-1.4,0.3l-0.2,0.4L-483.2,506.3z"/>
		<path class="st1" d="M-483.3,501.6l1.4-1.6l0.4,0.3l-0.9,1l0.6,0.5l0.8-0.8l0.4,0.3l-0.9,1l0.6,0.6l1-1.1l0.4,0.3l-1.5,1.6
			L-483.3,501.6z"/>
		<path class="st1" d="M-480.3,498.6l0.7-0.5l1.6,0.8c0.3,0.2,0.7,0.4,0.9,0.6l0,0c-0.1-0.1-0.3-0.4-0.5-0.7l-0.9-1.3l0.5-0.4
			l1.7,2.6l-0.7,0.5l-1.8-1c-0.2-0.1-0.5-0.2-0.6-0.4l0,0c0.1,0.2,0.2,0.4,0.4,0.7l1,1.4l-0.5,0.3L-480.3,498.6z"/>
		<path class="st1" d="M-473.4,495.3l0.8-0.1l1.1,1.4c0.2,0.3,0.5,0.7,0.6,0.9l0,0c0-0.2-0.1-0.5-0.2-0.9l-0.3-1.6l0.6-0.1l0.6,3.1
			l-0.9,0.1l-1.2-1.6c-0.1-0.2-0.3-0.4-0.4-0.6l0,0c0,0.2,0.1,0.5,0.1,0.7l0.3,1.7l-0.6,0.1L-473.4,495.3z"/>
		<path class="st1" d="M-468.8,496.3c0.1-1.1,0.8-1.6,1.6-1.5c0.9,0.1,1.4,0.7,1.3,1.8s-0.8,1.6-1.6,1.5
			C-468.4,498-468.9,497.4-468.8,496.3z M-466.5,496.6c0.1-0.8-0.2-1.2-0.7-1.2s-0.8,0.3-0.9,1.1s0.2,1.2,0.7,1.2
			C-467,497.7-466.6,497.4-466.5,496.6z"/>
		<path class="st1" d="M-463.2,497.7l-0.5-0.2l-0.5,1.2l-0.6-0.2l1.1-3l1.2,0.5c0.6,0.2,0.8,0.7,0.6,1.2c-0.2,0.4-0.4,0.5-0.8,0.6
			l0.2,1.6l-0.7-0.3V497.7z M-463,497.3c0.3,0.1,0.5,0.1,0.6-0.2c0.1-0.3,0-0.5-0.2-0.5l-0.5-0.2l-0.3,0.8L-463,497.3z"/>
		<path class="st1" d="M-458.8,498.9c0-0.1,0.1-0.4-0.2-0.6c-0.3-0.2-0.5-0.1-0.6,0c-0.1,0.1-0.1,0.2,0,0.4l0.4,0.6
			c0.3,0.4,0.3,0.7,0.1,1.1c-0.3,0.4-0.9,0.6-1.6,0.1c-0.6-0.4-0.7-0.9-0.5-1.3l0.6,0.1c-0.1,0.2-0.1,0.5,0.2,0.7
			c0.3,0.2,0.5,0.2,0.7-0.1c0.1-0.1,0.1-0.3-0.1-0.5l-0.2-0.1c-0.3-0.4-0.5-0.8-0.2-1.2c0.2-0.4,0.8-0.6,1.5-0.1
			c0.4,0.3,0.7,0.6,0.5,1.1L-458.8,498.9z"/>
		<path class="st1" d="M-456.2,500l0.4,0.5l-1,0.9l0,0l1.7-0.1l0.5,0.6l-2,0.1l-0.3,2.1l-0.6-0.6l0.3-1.8l0,0l-1.1,1l-0.4-0.5
			L-456.2,500z"/>
		<path class="st1" d="M-453.4,503.5l1,1.8l-0.4,0.2l-0.7-1.2l-0.7,0.4l0.6,1.2l-0.4,0.2l-0.7-1.1l-0.8,0.4l0.7,1.3l-0.4,0.2l-1-1.8
			L-453.4,503.5z"/>
	</g>
	<g>
		<path class="st1" d="M-484.8,514.6l-0.1-0.9l0.5-0.1l0.3,2.4l-0.5,0.1l-0.1-0.9l-2.6,0.3l-0.1-0.7L-484.8,514.6z"/>
		<path class="st1" d="M-483,519.5l-1.8,0.7c-0.8,0.3-1.4,0-1.7-0.8c-0.3-0.7,0-1.3,0.8-1.6l1.8-0.7l0.2,0.6l-1.8,0.7
			c-0.5,0.2-0.7,0.4-0.6,0.9c0.2,0.4,0.5,0.5,1,0.3l1.8-0.7L-483,519.5z"/>
		<path class="st1" d="M-483.2,522.7l-0.3-0.4l-1.1,0.7l-0.4-0.5l2.6-1.8l0.7,1.1c0.4,0.6,0.2,1-0.2,1.3c-0.4,0.2-0.7,0.2-1,0
			l-0.8,1.4l-0.3-0.6L-483.2,522.7z M-482.8,522.4c0.2,0.2,0.4,0.3,0.6,0.1c0.3-0.2,0.3-0.4,0.1-0.6l-0.3-0.5l-0.7,0.6L-482.8,522.4
			z"/>
		<path class="st1" d="M-480.1,523.6l0.5,0.5l-2.3,2.2l-0.5-0.5L-480.1,523.6z"/>
		<path class="st1" d="M-477.8,526.6c0-0.1,0.1-0.4-0.2-0.6s-0.5-0.1-0.6,0s-0.1,0.2,0,0.4l0.4,0.6c0.3,0.4,0.3,0.7,0.1,1.1
			c-0.3,0.4-0.9,0.6-1.6,0.1c-0.6-0.4-0.6-1-0.5-1.3l0.6,0.2c-0.1,0.2-0.1,0.5,0.2,0.7c0.3,0.2,0.5,0.2,0.7,0
			c0.1-0.1,0.1-0.3-0.1-0.5l-0.2-0.4c-0.2-0.4-0.5-0.8-0.2-1.2c0.3-0.4,0.8-0.6,1.5-0.1c0.4,0.3,0.7,0.6,0.5,1.2L-477.8,526.6z"/>
		<path class="st1" d="M-475.3,527.6l-0.8-0.3l0.2-0.5l2.2,0.9l-0.2,0.5l-0.8-0.3l-1,2.4l-0.6-0.3L-475.3,527.6z"/>
		<path class="st1" d="M-472.6,528l2,0.4l-0.1,0.5l-1.4-0.2l-0.1,0.8l1.3,0.2l-0.1,0.5l-1.3-0.2l-0.2,1.3l-0.7-0.1L-472.6,528z"/>
		<path class="st1" d="M-469.4,530c-0.1-1.1,0.5-1.7,1.4-1.8c0.9-0.1,1.5,0.5,1.6,1.6c0.1,1.1-0.5,1.7-1.4,1.8
			C-468.7,531.6-469.4,531.1-469.4,530z M-467.2,529.9c-0.1-0.8-0.4-1.1-0.9-1.1s-0.8,0.4-0.7,1.2c0.1,0.8,0.4,1.1,0.9,1.1
			C-467.4,531-467.1,530.7-467.2,529.9z"/>
		<path class="st1" d="M-463.7,529.4l-0.5,0.2l0.4,1.2l-0.6,0.2l-1-3l1.3-0.4c0.7-0.2,1.1,0,1.2,0.6c0.1,0.4,0,0.7-0.3,0.9l1.1,1.2
			l-0.7,0.2L-463.7,529.4z M-463.9,528.9c0.3-0.1,0.4-0.3,0.3-0.6s-0.3-0.4-0.5-0.3l-0.6,0.2l0.3,0.8L-463.9,528.9z"/>
		<path class="st1" d="M-462.1,526.7l1.8-1.1l0.3,0.4l-1.2,0.7l0.4,0.7l1.1-0.7l0.3,0.4l-1.1,0.7l0.5,0.7l1.2-0.7l0.3,0.4l-1.8,1.1
			L-462.1,526.7z"/>
		<path class="st1" d="M-459.2,524.9l0.6-0.6l1.7,0.5c0.3,0.1,0.8,0.3,1,0.4l0,0c-0.1-0.1-0.4-0.4-0.6-0.6l-1.1-1.1l0.4-0.4l2.2,2.2
			l-0.6,0.6l-2-0.6c-0.2-0.1-0.5-0.2-0.7-0.3l0,0c0.2,0.1,0.4,0.3,0.5,0.5l1.2,1.2l-0.4,0.4L-459.2,524.9z"/>
		<path class="st1" d="M-456.5,521.8l0.4-0.6l2.6,1.7l-0.4,0.6L-456.5,521.8z"/>
		<path class="st1" d="M-455.4,520l0.3-0.8l1.7-0.2c0.3,0,0.8-0.1,1,0l0,0c-0.2,0-0.5-0.2-0.8-0.3l-1.4-0.7l0.2-0.6l2.9,1.2
			l-0.3,0.8l-2,0.2c-0.2,0-0.5,0-0.7,0l0,0c0.2,0.1,0.4,0.1,0.7,0.2l1.6,0.6l-0.2,0.6L-455.4,520z"/>
		<path class="st1" d="M-453,514.3c-0.2,0-0.5,0.2-0.5,0.5c-0.1,0.5,0.3,0.8,1.1,0.9c0.8,0.1,1.2-0.2,1.2-0.6c0-0.2,0-0.4-0.1-0.6
			h-0.7v0.5h-0.5l0.1-1.2l1.5,0.2c0.1,0.2,0.3,0.7,0.2,1.2c-0.1,0.9-0.7,1.4-1.8,1.3s-1.6-0.8-1.5-1.7c0.1-0.7,0.5-1,0.9-1.1
			L-453,514.3z"/>
	</g>
	<path class="st1" d="M-485.5,511.2c0.6,0,1.1-0.5,1.1-1.1s-0.5-1.1-1.1-1.1s-1.1,0.5-1.1,1.1C-486.5,510.7-486.1,511.2-485.5,511.2
		z"/>
	<path class="st1" d="M-452.6,511.2c0.6,0,1.1-0.5,1.1-1.1s-0.5-1.1-1.1-1.1s-1.1,0.5-1.1,1.1S-453.2,511.2-452.6,511.2z"/>
	<path class="st2" d="M-479.5,506.3c0,0,0-3,2.4-3c2.8,0,15.9,0,16.4,0c0.6,0,2.5,0.6,2.5,2.9c0,2.2-1.4,3-2.4,3s-5.2,0-5.2,0
		c0,2.1,0,13.6,0,14.4c0,0.8-0.4,2.6-3.2,2.6s-3.1-1.8-3.1-2.6c0-0.3,0-14.4,0-14.4c-2.7,0-4,0-5,0
		C-478.3,509.3-479.6,508.3-479.5,506.3z"/>
</g>
</svg>
